<svg width="107" height="32" viewBox="0 0 107 32" fill="none" xmlns="http://www.w3.org/2000/svg">
<g clip-path="url(#clip0_427_1290)">
<path d="M41.4791 27.6645V4.28387H45.763V27.6645H41.4791Z" fill="#150B02"/>
<path d="M82.6146 11.7678H86.692V13.7291C87.5694 12.1807 89.5823 11.3549 91.3372 11.3549C93.5049 11.3549 95.2598 12.2839 96.034 13.9871C97.2727 12.0258 98.9759 11.3549 101.04 11.3549C103.982 11.3549 106.769 13.1097 106.769 17.3936V27.6645H102.589V18.2194C102.589 16.5161 101.763 15.2258 99.8017 15.2258C97.9436 15.2258 96.8598 16.671 96.8598 18.3742V27.6645H92.6275V18.2194C92.6275 16.5161 91.7501 15.2258 89.8404 15.2258C87.9823 15.2258 86.8469 16.6194 86.8469 18.3742V27.6645H82.563L82.6146 11.7678Z" fill="#150B02"/>
<path d="M55.4662 28.129C50.6146 28.129 47.1565 24.5677 47.1565 19.7161C47.1565 14.9677 50.6662 11.3032 55.4662 11.3032C60.3178 11.3032 63.7759 15.0194 63.7759 19.7161C63.8275 24.4645 60.3178 28.129 55.4662 28.129ZM55.4662 15.1742C52.9888 15.1742 50.9242 17.1871 50.9242 19.7161C50.9242 22.1935 52.9371 24.2581 55.4662 24.2581C57.9436 24.2581 60.0081 22.2452 60.0081 19.7161C60.0081 17.2387 57.9436 15.1742 55.4662 15.1742Z" fill="#150B02"/>
<path d="M72.963 28.129C68.1114 28.129 64.6533 24.5677 64.6533 19.7161C64.6533 14.9677 68.163 11.3032 72.963 11.3032C77.8146 11.3032 81.2727 15.0194 81.2727 19.7161C81.2727 24.4645 77.8146 28.129 72.963 28.129ZM72.963 15.1226C70.434 15.1226 68.3694 17.1871 68.3694 19.7161C68.3694 22.2452 70.434 24.3097 72.963 24.3097C75.492 24.3097 77.5565 22.2452 77.5565 19.7161C77.5565 17.1871 75.492 15.1226 72.963 15.1226Z" fill="#150B02"/>
<path d="M32.8598 14.1936H23.5178L31.6211 9.54839L29.8662 6.45161L21.763 11.0968L26.4082 2.99355L23.3114 1.23871L18.6662 9.34194V0H15.1049V9.34194L10.4598 1.23871L7.36299 2.99355L12.0082 11.0968L3.90493 6.45161L2.15009 9.54839L10.2533 14.1936H0.911377V17.7548H10.2533L2.15009 22.4L3.90493 25.4968L12.0082 20.8516L7.36299 28.9548L10.4598 30.7097L15.1049 22.6065V31.9484H18.6662V22.6065L23.3114 30.7097L26.4082 28.9548L21.763 20.8516L29.8662 25.4968L31.6211 22.4L23.5178 17.7548H32.8598V14.1936ZM16.8598 20.8C14.1759 20.8 12.0082 18.6323 12.0082 15.9484C12.0082 13.2645 14.1759 11.0968 16.8598 11.0968C19.5436 11.0968 21.7114 13.2645 21.7114 15.9484C21.7114 18.6323 19.5436 20.8 16.8598 20.8Z" fill="#150B02"/>
</g>
<defs>
<clipPath id="clip0_427_1290">
<rect width="105.961" height="32" fill="white" transform="translate(0.911377)"/>
</clipPath>
</defs>
</svg>
