<svg width="159" height="32" viewBox="0 0 159 32" fill="none" xmlns="http://www.w3.org/2000/svg">
<g clip-path="url(#clip0_427_1273)">
<path d="M0 0H31.7958V32H0V0Z" fill="#150B02"/>
<path d="M88.9192 6.33191C89.1915 6.33191 89.2596 6.67233 89.2596 6.94467C89.3277 8.03404 89.3958 9.05531 89.3958 10.1447C89.4638 11.166 89.4638 12.1872 89.4638 13.2085C90.0766 12.7319 90.6213 12.2553 91.3021 12.0511C92.3915 11.5745 93.6851 11.5745 94.7745 12.1191C95.9319 12.7319 96.6809 13.8213 97.0894 14.9787C97.4298 16.1362 97.566 17.3617 97.4979 18.5191C97.3617 19.9489 97.0213 21.3106 96.2043 22.4681C95.7277 23.1489 95.1149 23.6936 94.2979 23.966C93.0043 24.4425 91.6426 24.2383 90.4851 23.5574C90.1447 23.3532 89.8043 23.0128 89.5319 22.7404C89.3958 23.1489 89.3277 23.5574 89.1915 23.966C88.5787 23.966 88.0341 24.034 87.4213 23.8979C87.6255 22.9447 87.6255 21.9234 87.6936 20.9702C87.7617 17.4979 87.6936 14.0255 87.6936 10.6213C87.6255 9.25957 87.6936 7.89787 87.4894 6.60425C87.8979 6.46808 88.4426 6.33191 88.9192 6.33191ZM93.4128 13.4808C92.8681 13.3447 92.3234 13.3447 91.8468 13.4128C90.8936 13.5489 90.1447 14.2298 89.5319 14.9106C89.5319 15.1149 89.5319 15.3872 89.5319 15.5915V21.1064C89.5319 21.3106 89.6681 21.4468 89.8043 21.5149C90.7575 22.4 92.1192 22.8085 93.3447 22.5362C93.9575 22.4 94.5021 21.9915 94.7745 21.4468C95.2511 20.6979 95.3872 19.8128 95.4553 18.9277C95.5234 18.2468 95.5915 17.5659 95.5234 16.9532C95.5234 16.2042 95.3192 15.3872 94.9106 14.7064C94.5702 14.0255 94.0255 13.617 93.4128 13.4808ZM101.243 6.8085C101.583 6.67233 102.06 6.67233 102.4 6.87659C102.74 7.08085 103.013 7.42127 103.149 7.7617C103.353 8.57872 102.74 9.46382 101.923 9.53191C101.311 9.59999 100.63 9.25957 100.426 8.57872C100.153 7.96595 100.562 7.08085 101.243 6.8085ZM44.9362 8.23829C45.8213 7.62553 46.9106 7.14893 48 7.14893C49.1575 7.14893 50.3149 7.21702 51.3362 7.69361C51.7447 7.89787 52.1532 8.10212 52.5617 8.37446C52.2894 8.85106 51.9489 9.19148 51.6085 9.59999C51.2 9.39574 50.7915 9.1234 50.3149 8.91914C49.2255 8.51063 47.9319 8.44255 46.8426 8.91914C45.8894 9.25957 45.1404 10.0085 44.6638 10.8936C44.3915 11.5745 44.1192 12.2553 43.983 12.9362C43.8468 13.617 43.8468 14.2979 43.7787 14.9787C43.7787 15.8638 43.7107 16.817 43.7787 17.7021C43.9149 18.9957 44.3915 20.2213 45.2085 21.1745C45.9575 22.0596 47.0468 22.5362 48.2043 22.6723C48.817 22.6723 49.3617 22.6723 49.9745 22.5362C50.6553 22.4 51.2681 21.9915 51.9489 21.7191C52.2894 22.0596 52.6298 22.5362 52.9702 22.9447C52.4936 23.217 52.017 23.4894 51.4724 23.6936C50.1106 24.2383 48.5447 24.3064 47.1149 24.1021C46.0255 23.8979 45.0724 23.3532 44.2553 22.6723C43.3021 21.8553 42.6213 20.766 42.2128 19.6085C41.9404 18.7915 41.8043 17.9745 41.7362 17.1574C41.7362 16.5447 41.6 15.9319 41.7362 15.2511C41.7362 14.0936 41.9404 12.8681 42.417 11.7787C42.8936 10.417 43.7106 9.1234 44.9362 8.23829Z" fill="#150B02"/>
<path d="M9.39575 7.96597C9.53192 7.96597 9.66809 7.89788 9.80426 7.89788C10.4851 7.89788 11.166 7.89788 11.8468 7.96597C11.983 7.96597 11.983 8.03405 12.0511 8.10214C13.0723 10.2128 14.0936 12.3915 15.183 14.5702C15.3872 15.0468 15.5915 15.4553 15.8638 15.8638C16.0681 15.5234 16.2723 15.183 16.4766 14.7745C17.634 12.4596 18.7915 10.2128 19.9489 7.89788C20.6979 7.89788 21.4468 7.8298 22.2638 7.96597C22.1277 8.44256 21.8553 8.78299 21.6511 9.1915C20.1532 12.1192 18.5872 15.0468 17.0213 17.9745C16.9532 18.1106 16.9532 18.1787 16.9532 18.3149C16.9532 20.4255 16.9532 22.5362 16.9532 24.5787C16.2043 24.5787 15.4553 24.5787 14.7064 24.5787C14.7064 22.5362 14.7064 20.4936 14.7064 18.4511C14.7064 18.2468 14.7064 17.9745 14.5702 17.7702C13.1404 15.1149 11.7787 12.4596 10.3489 9.73618C10.0766 9.1915 9.73618 8.57873 9.39575 7.96597Z" fill="white"/>
<path d="M132.221 8.91916C132.834 8.71491 133.447 8.57874 134.128 8.44257C133.991 9.60001 133.923 10.7575 133.923 11.983C134.877 11.983 135.898 11.983 136.851 12.0511C136.715 12.5277 136.511 12.9362 136.306 13.3447C135.489 13.3447 134.672 13.3447 133.787 13.3447C133.787 14.4341 133.787 15.5234 133.787 16.6128C133.787 17.4298 133.855 18.3149 133.787 19.2C133.787 20.1532 133.787 21.1745 133.855 22.1277C133.855 22.5362 134.264 22.8085 134.604 22.9447C135.217 23.0809 135.83 23.0128 136.443 22.8766C136.579 23.217 136.647 23.6255 136.647 23.966C136.102 24.2383 135.489 24.3064 134.877 24.3745C134.06 24.3745 133.106 24.2383 132.494 23.6255C132.017 23.1489 132.017 22.4 131.949 21.7872C131.881 20.4255 131.949 18.9958 131.881 17.6341C131.881 16.2043 131.881 14.8426 131.881 13.4128C131.336 13.4128 130.791 13.4128 130.315 13.4128C130.315 12.9362 130.315 12.4596 130.315 12.0511C130.86 12.0511 131.336 12.0511 131.881 12.0511C132.085 10.9617 132.085 9.87235 132.221 8.91916ZM60.051 11.6426C60.5276 11.6426 61.0723 11.6426 61.5489 11.7787C62.6383 12.1192 63.5915 12.9362 64.1361 13.8894C64.6127 14.7745 64.9532 15.7277 65.0213 16.7489C65.0893 18.1107 65.1574 19.4724 64.6808 20.766C64.2723 21.9915 63.4553 23.0809 62.2978 23.6936C61.1404 24.3064 59.7787 24.3745 58.5532 24.0341C57.4638 23.7617 56.5106 23.0128 55.8298 22.0596C55.1489 21.0383 54.8766 19.8128 54.8766 18.5192C54.8766 17.3617 54.8085 16.1362 55.217 14.9787C55.5574 13.8894 56.3064 12.8681 57.3276 12.1872C57.8042 11.9149 58.2808 11.6426 58.8255 11.5745C59.234 11.6426 59.6425 11.6426 60.051 11.6426ZM59.0979 13.2085C58.4851 13.3447 57.8723 13.7532 57.5319 14.2979C57.0553 15.1149 56.9191 16.0681 56.9191 17.0213C56.851 17.7021 56.9191 18.383 56.9872 19.0638C57.1234 19.8809 57.2595 20.766 57.6681 21.5149C58.0766 22.3319 58.9617 22.6724 59.8468 22.7404C60.6638 22.8085 61.5489 22.6043 62.1617 21.9234C62.6383 21.3787 62.9106 20.766 62.9787 20.017C63.1149 19.1319 63.1149 18.2468 63.0468 17.4298C63.0468 16.5447 62.9106 15.5915 62.5702 14.7064C62.3659 14.1617 61.9574 13.7532 61.4808 13.4809C60.7319 13.0724 59.9149 13.0043 59.0979 13.2085ZM68.3574 12.0511C68.9021 11.8468 69.4468 11.7107 70.0596 11.6426C70.2638 12.1872 70.4 12.7319 70.4681 13.3447C70.8766 13.1404 71.1489 12.8 71.5574 12.5958C72.3744 11.983 73.3957 11.6426 74.417 11.6426C74.6213 11.6426 74.8936 11.7107 75.0979 11.8468C75.4383 12.0511 75.7787 12.1872 76.1191 12.4596C76.3915 12.7319 76.5957 13.1404 76.8 13.4809C77.2766 13.2766 77.617 12.8681 78.0255 12.5958C78.7064 12.1192 79.5234 11.7107 80.4766 11.6426C81.2936 11.5745 82.1106 11.8468 82.7234 12.3915C82.9957 12.6638 83.2681 12.9362 83.4042 13.2766C83.5404 13.617 83.6085 13.9575 83.6085 14.366C83.7447 16.2724 83.6766 18.2468 83.7447 20.1532C83.7447 21.4468 83.7447 22.7404 83.7447 24.0341C83.1319 24.0341 82.451 24.0341 81.8383 24.0341C81.8383 22.1277 81.8383 20.1532 81.8383 18.2468C81.8383 17.0213 81.8383 15.7958 81.7702 14.5021C81.7021 14.0936 81.4979 13.7532 81.1574 13.4809C80.817 13.2766 80.3404 13.2766 79.8638 13.2766C79.1149 13.3447 78.5021 13.8213 77.8893 14.2979C77.617 14.5021 77.3447 14.7745 77.0723 14.9787C77.0042 15.0468 77.0042 15.183 77.0042 15.2511C77.0042 18.1787 77.0042 21.0383 77.0042 23.966C76.3915 23.966 75.7106 23.966 75.0979 23.966V17.1575C75.0979 16.6128 75.0979 16.0681 75.0979 15.5234C75.0979 14.9787 75.0979 14.366 74.8936 13.8894C74.4851 13.3447 73.7362 13.2085 73.1234 13.4128C72.1702 13.617 71.3532 14.2298 70.6042 14.9107C70.4681 14.9787 70.4681 15.1149 70.4681 15.2511C70.4681 18.1787 70.4681 21.1064 70.4681 24.0341C69.9234 24.0341 69.3787 24.0341 68.834 24.0341C68.7659 21.0383 68.834 18.0426 68.6979 15.0468C68.6979 14.366 68.6978 13.6851 68.5617 13.0043C68.4936 12.6638 68.3574 12.3234 68.3574 12.0511ZM100.834 11.983C101.447 11.9149 102.06 11.7787 102.672 11.6426C102.74 13.3447 102.74 15.0468 102.74 16.6809C102.74 19.1319 102.74 21.5149 102.74 23.966C102.128 23.966 101.447 23.966 100.834 23.966C100.834 20.4936 100.834 17.0213 100.834 13.5489C100.834 13.0724 100.766 12.4596 100.834 11.983ZM125.277 11.7107C126.57 11.9149 127.66 13.1404 127.728 14.5021C127.796 16.4766 127.728 18.5192 127.728 20.4936V21.1064C127.728 21.5149 127.728 21.9234 127.864 22.2638C127.932 22.6724 128.34 22.8766 128.613 23.0809C128.34 23.4213 128.136 23.8979 127.796 24.1702C127.591 24.3745 127.319 24.1702 127.183 24.0341C126.706 23.6936 126.434 23.217 126.162 22.6724C125.753 22.8766 125.481 23.2851 125.004 23.4894C124.323 23.966 123.506 24.1702 122.621 24.1702C121.872 24.1702 121.123 24.0341 120.443 23.6936C119.353 23.0809 118.74 21.8553 118.808 20.6298C118.808 19.4724 119.421 18.3149 120.306 17.6341C121.396 16.817 122.826 16.5447 124.187 16.4085C124.8 16.3404 125.413 16.3404 126.094 16.3404C126.094 15.7277 126.094 15.1149 125.957 14.5021C125.889 14.0255 125.617 13.4809 125.14 13.2085C124.596 12.9362 123.915 12.8681 123.302 13.0043C122.145 13.1404 121.055 13.617 120.102 14.2979C119.83 13.9575 119.557 13.617 119.353 13.2085C119.217 13.0043 119.421 12.8681 119.557 12.8C120.851 12.1192 122.213 11.5064 123.711 11.5064H124.323C124.664 11.6426 124.936 11.6426 125.277 11.7107ZM124.46 17.7702C123.847 17.8383 123.302 17.8383 122.689 17.9745C122.008 18.1787 121.396 18.5872 120.987 19.2C120.783 19.5404 120.783 19.9489 120.783 20.3575C120.783 20.766 120.715 21.2426 120.919 21.6511C121.055 22.0596 121.396 22.4681 121.804 22.6043C122.281 22.8085 122.826 22.8085 123.37 22.8085C123.983 22.7404 124.528 22.4 125.004 21.9915C125.413 21.6511 125.821 21.2426 125.821 20.6979C125.889 19.7447 125.889 18.7234 125.889 17.7702C125.413 17.8383 124.936 17.7021 124.46 17.7702ZM145.157 11.7787C146.247 12.0511 147.2 12.7319 147.881 13.617C148.426 14.366 148.766 15.183 148.902 16.0681C149.038 16.8851 149.106 17.7702 149.038 18.6553C149.038 20.0851 148.562 21.4468 147.745 22.5362C147.064 23.4213 145.974 23.966 144.953 24.1702C143.66 24.3745 142.23 24.1702 141.072 23.3532C140.119 22.6724 139.506 21.583 139.166 20.4255C138.962 19.8128 138.962 19.2681 138.894 18.6553C138.894 17.6341 138.894 16.6809 139.03 15.6596C139.302 14.5702 139.847 13.4809 140.664 12.6638C141.277 12.0511 142.094 11.7107 142.911 11.5745C143.728 11.5745 144.477 11.6426 145.157 11.7787ZM143.115 13.2085C142.23 13.3447 141.481 14.0255 141.209 14.8426C140.868 15.7277 140.868 16.6809 140.868 17.566C140.868 18.4511 140.868 19.3362 141.072 20.1532C141.209 20.766 141.345 21.3107 141.753 21.7872C142.094 22.2638 142.706 22.5362 143.251 22.6043C143.455 22.6724 143.728 22.6724 143.932 22.6724H144.136H144.34C144.817 22.6043 145.226 22.4681 145.634 22.2638C146.111 21.9915 146.451 21.5149 146.655 20.9702C146.86 20.3575 146.928 19.6766 146.996 19.0638C146.996 18.3149 147.064 17.566 146.996 16.7489C146.928 15.9319 146.86 15.1149 146.451 14.4341C146.111 13.8894 145.634 13.4809 145.021 13.2085C144.409 13.0724 143.728 13.0724 143.115 13.2085ZM152.306 12.1192C152.919 11.983 153.464 11.7787 154.009 11.6426C154.349 12.2553 154.349 12.9362 154.417 13.5489C154.689 13.3447 154.962 13.0724 155.234 12.8C156.051 11.983 157.277 11.5064 158.434 11.7107V11.8468C158.162 12.3915 158.026 13.0043 157.753 13.617C157.753 13.7532 157.549 13.6851 157.481 13.6851C157.004 13.6851 156.391 13.6851 155.983 13.9575C155.506 14.2298 155.166 14.5702 154.826 14.9787C154.485 15.3872 154.553 15.9319 154.553 16.4085C154.553 17.0894 154.485 17.7702 154.553 18.4511C154.553 20.2894 154.553 22.1958 154.553 24.0341C153.94 24.0341 153.26 24.0341 152.647 24.0341C152.647 21.9915 152.647 19.8809 152.647 17.8383C152.647 16.4085 152.647 15.0468 152.579 13.617C152.511 13.0724 152.374 12.5958 152.306 12.1192ZM106.417 12.1192C106.962 11.9149 107.574 11.7107 108.119 11.7107C108.323 12.2553 108.46 12.8681 108.528 13.4128C109.004 13.0724 109.481 12.6638 109.957 12.3915C110.979 11.7787 112.204 11.3702 113.294 11.7787C113.974 11.983 114.587 12.3915 114.996 13.0043C115.336 13.4128 115.404 14.0255 115.472 14.5021C115.609 16.4085 115.54 18.2468 115.54 20.1532C115.54 21.4468 115.54 22.6724 115.54 23.8979C114.928 23.8979 114.247 23.8979 113.634 23.8979C113.634 21.8553 113.566 19.7447 113.566 17.7021C113.566 16.5447 113.566 15.3872 113.43 14.2298C113.226 13.6851 112.749 13.2085 112.136 13.2085C111.728 13.2085 111.251 13.2085 110.843 13.3447C109.957 13.6851 109.14 14.2298 108.391 14.8426C108.391 17.8383 108.391 20.9021 108.391 23.8979C107.847 23.8979 107.302 23.8979 106.757 23.8979C106.757 22.1958 106.689 20.4936 106.689 18.7234C106.689 16.9532 106.689 15.183 106.553 13.4128C106.689 13.0724 106.553 12.5958 106.417 12.1192Z" fill="#150B02"/>
</g>
<defs>
<clipPath id="clip0_427_1273">
<rect width="158.366" height="32" fill="white"/>
</clipPath>
</defs>
</svg>
