<svg width="142" height="50" viewBox="0 0 142 50" fill="none" xmlns="http://www.w3.org/2000/svg">
<g filter="url(#filter0_d_9_13)">
<path d="M47 22C47 33.0457 36.7668 42 25.1088 42C13.4507 42 4 33.0458 4 22.0001C4 10.9543 13.4507 2 25.1088 2C36.7668 2 47 10.9542 47 22Z" fill="url(#paint0_linear_9_13)"/>
<path d="M15.1798 19.626C15.989 15.0371 20.1107 11.5532 24.8877 11.5532C30.0573 11.5532 34.2833 15.6337 34.5788 20.7791H36.3084C39.1469 20.7791 41.4479 23.1027 41.4479 25.9688C41.4479 28.8349 39.1469 31.1583 36.3084 31.1583H15.1798C12.026 31.1583 9.46944 28.5767 9.46944 25.3921C9.46944 22.2076 12.026 19.626 15.1798 19.626Z" fill="url(#paint1_radial_9_13)"/>
</g>
<path d="M49.316 36C48.98 36 48.776 35.904 48.704 35.712C48.608 35.52 48.668 35.268 48.884 34.956L64.616 11.772C64.736 11.58 64.772 11.436 64.724 11.34C64.676 11.22 64.556 11.16 64.364 11.16H61.124C60.044 11.16 59.06 11.436 58.172 11.988C57.284 12.516 56.42 13.596 55.58 15.228L54.644 17.028C54.5 17.34 54.308 17.496 54.068 17.496C53.924 17.496 53.804 17.448 53.708 17.352C53.636 17.232 53.636 17.076 53.708 16.884L55.904 10.188C56 9.924 56.096 9.72 56.192 9.576C56.312 9.432 56.48 9.36 56.696 9.36C56.888 9.36 57.044 9.42 57.164 9.54C57.284 9.66 57.5 9.78 57.812 9.9C58.124 10.02 58.652 10.08 59.396 10.08H67.352C67.688 10.08 67.904 10.176 68 10.368C68.096 10.536 68.036 10.788 67.82 11.124L52.088 34.308C51.968 34.476 51.944 34.62 52.016 34.74C52.088 34.86 52.22 34.92 52.412 34.92H56.372C57.428 34.92 58.4 34.692 59.288 34.236C60.2 33.78 60.992 32.832 61.664 31.392L63.14 28.26C63.308 27.948 63.5 27.792 63.716 27.792C63.836 27.792 63.932 27.852 64.004 27.972C64.1 28.068 64.124 28.212 64.076 28.404L62.06 35.172C61.916 35.724 61.556 36 60.98 36H49.316ZM70.0073 36.324C68.7353 36.324 67.7153 35.832 66.9473 34.848C66.1793 33.84 65.7953 32.424 65.7953 30.6C65.7953 29.016 66.0713 27.444 66.6233 25.884C67.1993 24.324 67.9433 22.908 68.8553 21.636C69.7673 20.364 70.7633 19.344 71.8433 18.576C72.9473 17.808 74.0153 17.424 75.0473 17.424C76.1753 17.424 76.9793 17.7 77.4593 18.252C77.9633 18.78 78.2153 19.5 78.2153 20.412C78.2153 21.492 77.8313 22.572 77.0633 23.652C76.3193 24.708 75.2633 25.656 73.8953 26.496C72.5513 27.336 70.9673 27.96 69.1433 28.368C68.6153 28.488 68.3393 28.788 68.3153 29.268C68.2913 29.436 68.2793 29.616 68.2793 29.808C68.2793 29.976 68.2793 30.144 68.2793 30.312C68.2793 31.68 68.5073 32.712 68.9633 33.408C69.4433 34.104 70.0913 34.452 70.9073 34.452C71.8193 34.452 72.6953 34.032 73.5353 33.192C74.3993 32.352 75.1193 31.164 75.6953 29.628C75.7673 29.412 75.9113 29.304 76.1273 29.304C76.2713 29.304 76.3553 29.364 76.3793 29.484C76.4273 29.604 76.4273 29.748 76.3793 29.916C75.6113 32.028 74.6753 33.624 73.5713 34.704C72.4913 35.784 71.3033 36.324 70.0073 36.324ZM68.6753 27C68.6273 27.168 68.6513 27.312 68.7473 27.432C68.8673 27.528 69.0113 27.552 69.1793 27.504C70.6673 27.096 71.9153 26.484 72.9233 25.668C73.9313 24.828 74.6873 23.892 75.1913 22.86C75.7193 21.828 75.9833 20.82 75.9833 19.836C75.9833 18.828 75.5873 18.324 74.7953 18.324C74.0993 18.324 73.3433 18.732 72.5273 19.548C71.7113 20.364 70.9553 21.432 70.2593 22.752C69.5633 24.072 69.0353 25.488 68.6753 27ZM79.7869 35.532L83.2069 21.168C83.3269 20.64 83.3389 20.232 83.2429 19.944C83.1709 19.632 82.9549 19.476 82.5949 19.476C82.1629 19.476 81.6829 19.8 81.1549 20.448C80.6509 21.072 80.0749 22.272 79.4269 24.048C79.3309 24.36 79.1629 24.516 78.9229 24.516C78.5629 24.516 78.4669 24.3 78.6349 23.868C79.1629 22.212 79.7149 20.916 80.2909 19.98C80.8909 19.044 81.4909 18.384 82.0909 18C82.6909 17.616 83.2429 17.424 83.7469 17.424C84.5389 17.424 85.1029 17.724 85.4389 18.324C85.7749 18.9 85.7869 19.86 85.4749 21.204L84.5749 25.092C84.5509 25.26 84.5869 25.356 84.6829 25.38C84.7789 25.404 84.8629 25.344 84.9349 25.2C85.8709 23.256 86.7709 21.72 87.6349 20.592C88.4989 19.44 89.3149 18.624 90.0829 18.144C90.8509 17.664 91.5469 17.424 92.1709 17.424C93.0589 17.424 93.7069 17.784 94.1149 18.504C94.5229 19.224 94.5229 20.328 94.1149 21.816L91.3789 32.256C91.2109 32.928 91.1989 33.432 91.3429 33.768C91.4869 34.104 91.7509 34.272 92.1349 34.272C92.6149 34.272 93.0829 33.96 93.5389 33.336C94.0189 32.688 94.5109 31.476 95.0149 29.7C95.0869 29.436 95.2429 29.304 95.4829 29.304C95.6749 29.304 95.7829 29.376 95.8069 29.52C95.8549 29.664 95.8549 29.832 95.8069 30.024C95.3509 31.656 94.8589 32.94 94.3309 33.876C93.8029 34.788 93.2629 35.424 92.7109 35.784C92.1829 36.144 91.6429 36.324 91.0909 36.324C90.2269 36.324 89.5789 35.964 89.1469 35.244C88.7149 34.524 88.6909 33.408 89.0749 31.896L91.8469 21.456C92.1109 20.52 92.1469 19.872 91.9549 19.512C91.7869 19.152 91.5349 18.972 91.1989 18.972C90.6709 18.972 90.0709 19.308 89.3989 19.98C88.7269 20.628 88.0429 21.528 87.3469 22.68C86.6509 23.808 85.9669 25.092 85.2949 26.532C84.6229 27.972 84.0109 29.472 83.4589 31.032C82.9309 32.592 82.4989 34.116 82.1629 35.604C82.0909 35.868 81.9229 36 81.6589 36H80.1829C79.8469 36 79.7149 35.844 79.7869 35.532ZM103.996 14.22C103.54 14.22 103.156 14.064 102.844 13.752C102.556 13.416 102.412 13.02 102.412 12.564C102.412 11.916 102.604 11.4 102.988 11.016C103.396 10.632 103.852 10.44 104.356 10.44C104.836 10.44 105.232 10.596 105.544 10.908C105.88 11.196 106.048 11.58 106.048 12.06C106.048 12.732 105.844 13.26 105.436 13.644C105.028 14.028 104.548 14.22 103.996 14.22ZM101.044 36.36C100.252 36.36 99.6883 36.072 99.3523 35.496C99.0163 34.896 99.0043 33.924 99.3163 32.58L101.98 21.168C102.1 20.64 102.112 20.232 102.016 19.944C101.944 19.632 101.728 19.476 101.368 19.476C100.936 19.476 100.456 19.8 99.9283 20.448C99.4243 21.072 98.8483 22.272 98.2003 24.048C98.1043 24.36 97.9363 24.516 97.6963 24.516C97.3363 24.516 97.2403 24.3 97.4083 23.868C97.9363 22.212 98.4883 20.916 99.0643 19.98C99.6643 19.044 100.264 18.384 100.864 18C101.464 17.616 102.016 17.424 102.52 17.424C103.36 17.424 103.948 17.724 104.284 18.324C104.62 18.9 104.632 19.86 104.32 21.204L101.656 32.616C101.536 33.144 101.512 33.564 101.584 33.876C101.68 34.164 101.908 34.308 102.268 34.308C102.7 34.308 103.168 33.996 103.672 33.372C104.2 32.724 104.788 31.512 105.436 29.736C105.532 29.424 105.7 29.268 105.94 29.268C106.3 29.268 106.396 29.484 106.228 29.916C105.724 31.548 105.16 32.844 104.536 33.804C103.936 34.74 103.336 35.4 102.736 35.784C102.136 36.168 101.572 36.36 101.044 36.36ZM110.695 36.324C109.879 36.324 109.243 36 108.787 35.352C108.331 34.704 108.259 33.66 108.571 32.22L111.559 19.188C111.631 18.828 111.487 18.648 111.127 18.648H109.759C109.423 18.648 109.255 18.492 109.255 18.18C109.255 18.012 109.315 17.88 109.435 17.784C109.555 17.688 109.699 17.64 109.867 17.64H111.163C111.715 17.64 112.039 17.388 112.135 16.884L112.999 13.032C113.071 12.768 113.239 12.636 113.503 12.636H114.979C115.315 12.636 115.447 12.792 115.375 13.104L114.475 17.1C114.403 17.46 114.547 17.64 114.907 17.64H116.959C117.367 17.64 117.571 17.796 117.571 18.108C117.571 18.468 117.319 18.648 116.815 18.648H114.871C114.343 18.648 114.019 18.9 113.899 19.404L110.875 32.58C110.755 33.108 110.767 33.528 110.911 33.84C111.079 34.128 111.355 34.272 111.739 34.272C112.291 34.272 112.795 33.96 113.251 33.336C113.731 32.712 114.235 31.524 114.763 29.772C114.859 29.46 115.015 29.304 115.231 29.304C115.399 29.304 115.507 29.376 115.555 29.52C115.603 29.664 115.567 29.928 115.447 30.312C114.991 31.944 114.487 33.192 113.935 34.056C113.407 34.92 112.867 35.52 112.315 35.856C111.763 36.168 111.223 36.324 110.695 36.324ZM128.424 36.324C127.56 36.324 126.912 35.964 126.48 35.244C126.048 34.524 126.024 33.408 126.408 31.896L129.18 21.456C129.444 20.52 129.48 19.872 129.288 19.512C129.12 19.152 128.868 18.972 128.532 18.972C128.004 18.972 127.404 19.308 126.732 19.98C126.084 20.628 125.4 21.528 124.68 22.68C123.984 23.808 123.3 25.092 122.628 26.532C121.98 27.948 121.38 29.448 120.828 31.032C120.276 32.592 119.832 34.116 119.496 35.604C119.424 35.868 119.256 36 118.992 36H117.48C117.144 36 117.012 35.844 117.084 35.532L122.34 12.96C122.46 12.528 122.46 12.228 122.34 12.06C122.244 11.892 122.028 11.796 121.692 11.772L120.612 11.664C120.252 11.64 120.096 11.484 120.144 11.196C120.192 10.98 120.36 10.848 120.648 10.8C121.512 10.656 122.28 10.488 122.952 10.296C123.624 10.08 124.164 9.804 124.572 9.468C124.764 9.324 124.944 9.252 125.112 9.252C125.4 9.252 125.508 9.432 125.436 9.792L121.908 25.092C121.884 25.26 121.92 25.356 122.016 25.38C122.112 25.404 122.196 25.344 122.268 25.2C123.228 23.232 124.14 21.684 125.004 20.556C125.868 19.428 126.672 18.624 127.416 18.144C128.184 17.664 128.88 17.424 129.504 17.424C130.392 17.424 131.04 17.784 131.448 18.504C131.856 19.224 131.856 20.328 131.448 21.816L128.712 32.256C128.544 32.928 128.532 33.432 128.676 33.768C128.82 34.104 129.084 34.272 129.468 34.272C129.948 34.272 130.416 33.96 130.872 33.336C131.328 32.688 131.82 31.476 132.348 29.7C132.42 29.436 132.576 29.304 132.816 29.304C133.008 29.304 133.116 29.376 133.14 29.52C133.188 29.664 133.188 29.832 133.14 30.024C132.684 31.656 132.192 32.94 131.664 33.876C131.136 34.788 130.596 35.424 130.044 35.784C129.516 36.144 128.976 36.324 128.424 36.324Z" fill="#0D0D0D"/>
<defs>
<filter id="filter0_d_9_13" x="0" y="2" width="51" height="48" filterUnits="userSpaceOnUse" color-interpolation-filters="sRGB">
<feFlood flood-opacity="0" result="BackgroundImageFix"/>
<feColorMatrix in="SourceAlpha" type="matrix" values="0 0 0 0 0 0 0 0 0 0 0 0 0 0 0 0 0 0 127 0" result="hardAlpha"/>
<feOffset dy="4"/>
<feGaussianBlur stdDeviation="2"/>
<feComposite in2="hardAlpha" operator="out"/>
<feColorMatrix type="matrix" values="0 0 0 0 0 0 0 0 0 0 0 0 0 0 0 0 0 0 0.25 0"/>
<feBlend mode="normal" in2="BackgroundImageFix" result="effect1_dropShadow_9_13"/>
<feBlend mode="normal" in="SourceGraphic" in2="effect1_dropShadow_9_13" result="shape"/>
</filter>
<linearGradient id="paint0_linear_9_13" x1="-5.48165" y1="0.42864" x2="8.31176" y2="22.7835" gradientUnits="userSpaceOnUse">
<stop stop-color="#F59549"/>
<stop offset="1" stop-color="#F06351"/>
</linearGradient>
<radialGradient id="paint1_radial_9_13" cx="0" cy="0" r="1" gradientTransform="matrix(8.79545 30.7693 -33.077 23.4322 20.6137 11.2307)" gradientUnits="userSpaceOnUse">
<stop stop-color="white"/>
<stop offset="1" stop-color="#CBDDFF"/>
</radialGradient>
</defs>
</svg>
