<svg width="94" height="31" viewBox="0 0 94 31" fill="none" xmlns="http://www.w3.org/2000/svg">
<g filter="url(#filter0_d_5_7)">
<path d="M26.7216 11.0439C26.7216 17.2414 21.4191 22.4431 15.2216 22.4431C9.02407 22.4431 4 17.4191 4 11.2216C4 5.02406 9.02407 0 15.2216 0C21.4191 0 26.7216 4.84641 26.7216 11.0439Z" fill="url(#paint0_linear_5_7)"/>
<path d="M10.0357 9.52946C10.4658 6.95472 12.657 5 15.1965 5C17.9447 5 20.1912 7.28949 20.3483 10.1765H21.2678C22.7767 10.1765 24 11.4802 24 13.0883C24 14.6964 22.7767 16 21.2678 16H10.0357C8.35909 16 7 14.5515 7 12.7647C7 10.978 8.35909 9.52946 10.0357 9.52946Z" fill="url(#paint1_radial_5_7)"/>
<path d="M29 20C28.7667 20 28.6 19.9333 28.5 19.8C28.4167 19.6667 28.425 19.4917 28.525 19.275L35.75 3.15C35.85 2.88333 35.7583 2.75 35.475 2.75H32.975C32.3583 2.75 31.7917 2.95 31.275 3.35C30.775 3.73333 30.3583 4.475 30.025 5.575L29.65 6.825C29.6 7.04167 29.4833 7.15 29.3 7.15C29.05 7.15 28.9417 7.00833 28.975 6.725L29.425 2.075C29.4583 1.69167 29.6 1.5 29.85 1.5C29.9667 1.5 30.075 1.54167 30.175 1.625C30.275 1.70833 30.4417 1.79167 30.675 1.875C30.925 1.95833 31.3167 2 31.85 2H37.375C37.6083 2 37.7667 2.06667 37.85 2.2C37.95 2.31667 37.95 2.49167 37.85 2.725L30.625 18.85C30.525 19.1167 30.6167 19.25 30.9 19.25H33.675C34.1417 19.25 34.6 19.1833 35.05 19.05C35.5 18.9167 35.9 18.6417 36.25 18.225C36.6 17.7917 36.8583 17.15 37.025 16.3L37.35 14.625C37.4 14.4083 37.525 14.3 37.725 14.3C37.9583 14.3 38.0583 14.4417 38.025 14.725L37.725 19.425C37.6917 19.8083 37.4833 20 37.1 20H29Z" fill="#2E2929"/>
<path d="M44.7189 20.225C43.9189 20.225 43.2023 19.9583 42.5689 19.425C41.9356 18.8917 41.4273 18.1417 41.0439 17.175C40.6773 16.1917 40.4939 15.0583 40.4939 13.775C40.4939 12.4583 40.6856 11.3 41.0689 10.3C41.4523 9.3 41.9773 8.51667 42.6439 7.95C43.3106 7.38333 44.0523 7.1 44.8689 7.1C45.8523 7.1 46.6439 7.50833 47.2439 8.325C47.8606 9.125 48.1689 10.4333 48.1689 12.25C48.1689 12.8 47.9606 13.075 47.5439 13.075H42.7939C42.4606 13.075 42.2939 13.2667 42.2939 13.65C42.2939 15.4167 42.5523 16.7417 43.0689 17.625C43.5856 18.5083 44.2439 18.95 45.0439 18.95C45.6773 18.95 46.1939 18.725 46.5939 18.275C46.9939 17.825 47.3189 17.0667 47.5689 16C47.6189 15.8167 47.7273 15.725 47.8939 15.725C48.0939 15.725 48.1689 15.8917 48.1189 16.225C47.8523 17.7083 47.4273 18.75 46.8439 19.35C46.2606 19.9333 45.5523 20.225 44.7189 20.225ZM42.7189 12.45H45.2439C46.0439 12.45 46.4439 12.0333 46.4439 11.2C46.4439 10.1167 46.3106 9.26667 46.0439 8.65C45.7773 8.03333 45.3773 7.725 44.8439 7.725C44.1939 7.725 43.6439 8.1 43.1939 8.85C42.7606 9.6 42.4773 10.6667 42.3439 12.05C42.3106 12.3167 42.4356 12.45 42.7189 12.45Z" fill="#2E2929"/>
<path d="M50.8057 20C50.5557 20 50.4307 19.9083 50.4307 19.725C50.4307 19.575 50.539 19.475 50.7557 19.425L51.0557 19.375C51.4057 19.3083 51.6307 19.2083 51.7307 19.075C51.8473 18.925 51.9057 18.675 51.9057 18.325V9.925C51.9057 9.625 51.8557 9.425 51.7557 9.325C51.6723 9.20833 51.514 9.13333 51.2807 9.1L50.7557 9.025C50.539 9.00833 50.4307 8.91667 50.4307 8.75C50.4307 8.61667 50.564 8.525 50.8307 8.475C51.3473 8.39167 51.739 8.25833 52.0057 8.075C52.289 7.89167 52.5807 7.66667 52.8807 7.4C53.0307 7.25 53.1557 7.175 53.2557 7.175C53.4057 7.175 53.4807 7.275 53.4807 7.475V8.6C53.4807 8.75 53.5307 8.85 53.6307 8.9C53.7473 8.93333 53.8723 8.88333 54.0057 8.75C54.6723 8.11667 55.2557 7.68333 55.7557 7.45C56.2723 7.21667 56.814 7.1 57.3807 7.1C58.1307 7.1 58.7307 7.36667 59.1807 7.9C59.6307 8.41667 59.8557 9.18333 59.8557 10.2V18.325C59.8557 18.675 59.9057 18.925 60.0057 19.075C60.1223 19.2083 60.3557 19.3 60.7057 19.35L61.2557 19.425C61.439 19.4583 61.5307 19.5583 61.5307 19.725C61.5307 19.9083 61.4307 20 61.2307 20H57.0307C56.7973 20 56.6807 19.9083 56.6807 19.725C56.6807 19.5583 56.7723 19.4583 56.9557 19.425L57.3057 19.375C57.6557 19.325 57.8807 19.225 57.9807 19.075C58.0973 18.925 58.1557 18.675 58.1557 18.325V10.475C58.1557 9.65833 58.0057 9.08333 57.7057 8.75C57.4057 8.41667 56.9807 8.25 56.4307 8.25C55.8973 8.25 55.414 8.40833 54.9807 8.725C54.564 9.025 54.2307 9.43333 53.9807 9.95C53.7307 10.45 53.6057 11.0083 53.6057 11.625V18.325C53.6057 18.675 53.6557 18.925 53.7557 19.075C53.8723 19.225 54.1057 19.3167 54.4557 19.35L55.1307 19.425C55.314 19.4583 55.4057 19.55 55.4057 19.7C55.4057 19.9 55.2807 20 55.0307 20H50.8057Z" fill="#2E2929"/>
<path d="M65.8988 4.875C65.5488 4.875 65.2488 4.75 64.9988 4.5C64.7655 4.25 64.6488 3.93333 64.6488 3.55C64.6488 3.16667 64.7655 2.85833 64.9988 2.625C65.2488 2.375 65.5488 2.25 65.8988 2.25C66.2488 2.25 66.5405 2.375 66.7738 2.625C67.0072 2.85833 67.1238 3.16667 67.1238 3.55C67.1238 3.93333 67.0072 4.25 66.7738 4.5C66.5405 4.75 66.2488 4.875 65.8988 4.875ZM63.7988 20C63.5488 20 63.4238 19.9083 63.4238 19.725C63.4238 19.575 63.5322 19.475 63.7488 19.425L64.0488 19.375C64.4655 19.3083 64.7322 19.2083 64.8488 19.075C64.9655 18.925 65.0238 18.675 65.0238 18.325V9.925C65.0238 9.625 64.9738 9.425 64.8738 9.325C64.7905 9.20833 64.6322 9.13333 64.3988 9.1L63.8738 9.025C63.6572 9.00833 63.5488 8.91667 63.5488 8.75C63.5488 8.61667 63.6822 8.525 63.9488 8.475C64.4655 8.39167 64.8822 8.25833 65.1988 8.075C65.5155 7.89167 65.8238 7.66667 66.1238 7.4C66.2738 7.25 66.3988 7.175 66.4988 7.175C66.6488 7.175 66.7238 7.275 66.7238 7.475V18.325C66.7238 18.675 66.7738 18.925 66.8738 19.075C66.9738 19.225 67.1655 19.3167 67.4488 19.35L68.0738 19.425C68.2572 19.4583 68.3488 19.55 68.3488 19.7C68.3488 19.9 68.2238 20 67.9738 20H63.7988Z" fill="#2E2929"/>
<path d="M73.5402 20.225C72.9569 20.225 72.4736 20.025 72.0902 19.625C71.7236 19.2083 71.5402 18.5333 71.5402 17.6V8.25C71.5402 8.05 71.4402 7.95 71.2402 7.95H70.5152C70.2486 7.95 70.1152 7.85 70.1152 7.65C70.1152 7.51667 70.1902 7.4 70.3402 7.3C70.8902 6.91667 71.3319 6.50833 71.6652 6.075C71.9986 5.625 72.2902 5.01667 72.5402 4.25C72.6569 3.9 72.7986 3.725 72.9652 3.725C73.1486 3.725 73.2402 3.85833 73.2402 4.125V6.9C73.2402 7.13333 73.3569 7.25 73.5902 7.25H75.2152C75.4819 7.25 75.6152 7.36667 75.6152 7.6C75.6152 7.83333 75.4819 7.95 75.2152 7.95H73.5902C73.3569 7.95 73.2402 8.06667 73.2402 8.3V17.625C73.2402 17.9917 73.2986 18.2833 73.4152 18.5C73.5319 18.7 73.7486 18.8 74.0652 18.8C74.4152 18.8 74.6986 18.625 74.9152 18.275C75.1486 17.925 75.2986 17.3583 75.3652 16.575C75.3986 16.3417 75.5069 16.225 75.6902 16.225C75.8902 16.225 75.9902 16.35 75.9902 16.6C75.9402 17.8833 75.6736 18.8083 75.1902 19.375C74.7236 19.9417 74.1736 20.225 73.5402 20.225Z" fill="#2E2929"/>
<path d="M78.26 20C78.06 20 77.96 19.9083 77.96 19.725C77.96 19.5583 78.0516 19.4583 78.235 19.425L78.585 19.375C78.935 19.325 79.16 19.225 79.26 19.075C79.3766 18.925 79.435 18.675 79.435 18.325V4C79.435 3.7 79.385 3.5 79.285 3.4C79.2016 3.28333 79.0433 3.20833 78.81 3.175L78.285 3.1C78.1016 3.06667 78.01 2.96667 78.01 2.8C78.01 2.63333 78.1016 2.53333 78.285 2.5C78.7516 2.4 79.1433 2.28333 79.46 2.15C79.7766 2.01667 80.0433 1.88333 80.26 1.75C80.5266 1.58333 80.7266 1.5 80.86 1.5C81.0433 1.5 81.135 1.63333 81.135 1.9V8.525C81.135 8.675 81.185 8.76667 81.285 8.8C81.385 8.81667 81.51 8.75833 81.66 8.625C82.2933 8.04167 82.8516 7.64167 83.335 7.425C83.8183 7.20833 84.3266 7.1 84.86 7.1C85.6433 7.1 86.26 7.36667 86.71 7.9C87.16 8.41667 87.385 9.18333 87.385 10.2V18.325C87.385 18.675 87.435 18.925 87.535 19.075C87.6516 19.2083 87.885 19.3 88.235 19.35L88.785 19.425C88.9683 19.4583 89.06 19.5583 89.06 19.725C89.06 19.9083 88.96 20 88.76 20H84.56C84.3266 20 84.21 19.9083 84.21 19.725C84.21 19.5583 84.3016 19.4583 84.485 19.425L84.835 19.375C85.185 19.325 85.41 19.225 85.51 19.075C85.6266 18.925 85.685 18.675 85.685 18.325V10.475C85.685 9.65833 85.535 9.08333 85.235 8.75C84.935 8.41667 84.51 8.25 83.96 8.25C83.4266 8.25 82.9433 8.40833 82.51 8.725C82.0933 9.025 81.76 9.43333 81.51 9.95C81.26 10.45 81.135 11.0083 81.135 11.625V18.325C81.135 18.675 81.185 18.925 81.285 19.075C81.4016 19.225 81.635 19.3167 81.985 19.35L82.66 19.425C82.8433 19.4583 82.935 19.5583 82.935 19.725C82.935 19.9083 82.835 20 82.635 20H78.26Z" fill="#2E2929"/>
</g>
<defs>
<filter id="filter0_d_5_7" x="0" y="0" width="93.06" height="30.4431" filterUnits="userSpaceOnUse" color-interpolation-filters="sRGB">
<feFlood flood-opacity="0" result="BackgroundImageFix"/>
<feColorMatrix in="SourceAlpha" type="matrix" values="0 0 0 0 0 0 0 0 0 0 0 0 0 0 0 0 0 0 127 0" result="hardAlpha"/>
<feOffset dy="4"/>
<feGaussianBlur stdDeviation="2"/>
<feComposite in2="hardAlpha" operator="out"/>
<feColorMatrix type="matrix" values="0 0 0 0 0 0 0 0 0 0 0 0 0 0 0 0 0 0 0.25 0"/>
<feBlend mode="normal" in2="BackgroundImageFix" result="effect1_dropShadow_5_7"/>
<feBlend mode="normal" in="SourceGraphic" in2="effect1_dropShadow_5_7" result="shape"/>
</filter>
<linearGradient id="paint0_linear_5_7" x1="-14.756" y1="-0.881655" x2="-11.8152" y2="15.9217" gradientUnits="userSpaceOnUse">
<stop stop-color="#F59549"/>
<stop offset="1" stop-color="#F06351"/>
</linearGradient>
<radialGradient id="paint1_radial_5_7" cx="0" cy="0" r="1" gradientTransform="matrix(17.3986 17.264 -65.4309 13.1473 36.8642 5.17914)" gradientUnits="userSpaceOnUse">
<stop stop-color="white"/>
<stop offset="1" stop-color="#CBDDFF"/>
</radialGradient>
</defs>
</svg>
