<svg width="158" height="40" viewBox="0 0 158 40" fill="none" xmlns="http://www.w3.org/2000/svg">
<path d="M53.208 33.072C51.936 32.856 50.964 32.7 50.292 32.604C49.62 32.508 48.924 32.46 48.204 32.46C47.508 32.46 46.98 32.64 46.62 33C46.068 32.592 45.648 31.74 45.36 30.444C45.264 30.084 45.216 29.604 45.216 29.004C45.216 27.708 45.96 26.424 47.448 25.152L58.68 15.936C55.584 15.432 53.412 15.18 52.164 15.18C50.916 15.18 49.716 15.456 48.564 16.008C47.916 14.952 47.592 13.812 47.592 12.588C47.592 11.364 48.036 10.44 48.924 9.816C49.836 9.192 51.048 8.88 52.56 8.88C53.232 8.88 53.928 8.928 54.648 9.024C55.368 9.12 56.088 9.216 56.808 9.312L58.932 9.636C59.628 9.732 60.42 9.78 61.308 9.78C62.22 9.78 63.18 9.66 64.188 9.42C65.148 10.26 65.628 11.376 65.628 12.768C65.628 14.448 65.052 15.744 63.9 16.656L51.66 26.448C53.412 26.928 55.74 27.168 58.644 27.168C60.084 27.168 61.26 26.808 62.172 26.088C62.58 26.616 62.832 27.108 62.928 27.564C63.048 27.996 63.108 28.536 63.108 29.184C63.108 29.808 63 30.384 62.784 30.912C62.568 31.416 62.232 31.86 61.776 32.244C60.864 33.036 59.4 33.432 57.384 33.432C55.896 33.432 54.504 33.312 53.208 33.072ZM80.9693 26.916C81.5693 27.324 81.8693 27.984 81.8693 28.896C81.8693 29.784 81.6413 30.516 81.1853 31.092C80.7293 31.668 80.1293 32.148 79.3853 32.532C77.8493 33.324 76.2533 33.72 74.5973 33.72C72.9413 33.72 71.6213 33.54 70.6373 33.18C69.6773 32.82 68.8733 32.304 68.2253 31.632C66.9533 30.36 66.3173 28.56 66.3173 26.232C66.3173 22.608 67.3013 19.692 69.2693 17.484C71.3813 15.108 74.2733 13.92 77.9453 13.92C80.2253 13.92 81.9293 14.4 83.0573 15.36C83.8973 16.08 84.3173 17.028 84.3173 18.204C84.3173 22.428 80.6693 24.54 73.3733 24.54C73.2773 25.164 73.2293 25.74 73.2293 26.268C73.2293 27.372 73.4693 28.14 73.9493 28.572C74.4533 28.98 75.1613 29.184 76.0733 29.184C76.9853 29.184 77.9213 28.98 78.8813 28.572C79.8653 28.14 80.5613 27.588 80.9693 26.916ZM73.6253 22.992C75.3293 22.992 76.6733 22.464 77.6573 21.408C78.6413 20.4 79.1333 19.092 79.1333 17.484C79.1333 16.932 79.0253 16.512 78.8093 16.224C78.6173 15.912 78.3173 15.756 77.9093 15.756C77.5013 15.756 77.1173 15.84 76.7573 16.008C76.4213 16.152 76.0733 16.488 75.7133 17.016C74.8253 18.216 74.1293 20.208 73.6253 22.992ZM100.778 33.72C97.8735 33.72 96.4215 32.592 96.4215 30.336C96.4455 29.712 96.5535 28.872 96.7455 27.816L97.3935 24.504C98.0415 21.384 98.3655 19.476 98.3655 18.78C98.3655 17.388 97.9575 16.692 97.1415 16.692C95.7735 16.692 94.7295 18.48 94.0095 22.056L91.8855 33L84.6495 33.72L88.3935 14.604L94.2975 13.92L93.7215 17.448C94.8495 15.096 97.1415 13.92 100.598 13.92C102.278 13.92 103.466 14.28 104.162 15C104.882 15.696 105.242 16.836 105.242 18.42C105.242 19.908 104.858 22.392 104.09 25.872C103.73 27.432 103.55 28.512 103.55 29.112C103.55 29.688 103.706 30.144 104.018 30.48C104.354 30.816 104.762 31.008 105.242 31.056C105.002 31.872 104.462 32.52 103.622 33C102.806 33.48 101.858 33.72 100.778 33.72ZM116.76 31.02C116.016 32.82 114.456 33.72 112.08 33.72C110.856 33.72 109.86 33.3 109.092 32.46C108.444 31.716 108.12 30.972 108.12 30.228C108.12 28.284 108.564 25.416 109.452 21.624L110.784 14.64L118.092 13.92L115.896 25.296C115.488 27.072 115.284 28.272 115.284 28.896C115.284 30.264 115.776 30.972 116.76 31.02ZM111.432 9.636C111.432 8.7 111.816 7.98 112.584 7.476C113.376 6.972 114.336 6.72 115.464 6.72C116.592 6.72 117.492 6.972 118.164 7.476C118.86 7.98 119.208 8.7 119.208 9.636C119.208 10.572 118.824 11.28 118.056 11.76C117.312 12.24 116.376 12.48 115.248 12.48C114.12 12.48 113.196 12.24 112.476 11.76C111.78 11.28 111.432 10.572 111.432 9.636ZM120.403 29.4C120.403 28.752 120.571 27.612 120.907 25.98L122.815 16.26H120.691L120.835 15.18C123.715 14.316 126.547 12.828 129.331 10.716H131.059L130.195 14.64H133.003L132.679 16.26H129.907L128.071 25.98C127.759 27.468 127.603 28.464 127.603 28.968C127.603 30.12 128.107 30.816 129.115 31.056C128.875 31.872 128.323 32.52 127.459 33C126.595 33.48 125.551 33.72 124.327 33.72C123.103 33.72 122.143 33.336 121.447 32.568C120.751 31.8 120.403 30.744 120.403 29.4ZM150.943 29.004C150.943 30.06 151.483 30.744 152.563 31.056C152.299 31.944 151.651 32.628 150.619 33.108C149.755 33.516 148.843 33.72 147.883 33.72C146.947 33.72 146.227 33.588 145.723 33.324C145.243 33.084 144.871 32.76 144.607 32.352C144.175 31.728 143.959 30.828 143.959 29.652C143.959 28.956 144.151 27.648 144.535 25.728L145.039 22.992C145.447 20.904 145.651 19.476 145.651 18.708C145.651 17.364 145.279 16.692 144.535 16.692C143.599 16.692 142.831 17.376 142.231 18.744C141.991 19.272 141.787 19.932 141.619 20.724L139.171 33L131.935 33.72L137.011 7.8L144.247 7.08L143.959 8.52C143.287 12.216 142.663 14.688 142.087 15.936C143.431 14.592 145.339 13.92 147.811 13.92C150.427 13.92 151.975 14.784 152.455 16.512C152.623 17.064 152.707 17.58 152.707 18.06C152.707 18.54 152.683 18.972 152.635 19.356C152.611 19.716 152.539 20.232 152.419 20.904L151.951 23.496L151.123 27.564C151.003 28.116 150.943 28.596 150.943 29.004Z" fill="#0D0D0D"/>
<path d="M12.3891 0.347839L15.9543 3.65218C17.2913 4.86957 18.0043 6.52175 18.0043 8.34784C18.0043 10.087 18.7174 11.7391 19.9652 12.9565L20.4109 13.3913L24.5109 0.434788" fill="#F97E2C"/>
<path d="M0.267395 11.913L5.16957 11.7391C6.95218 11.6522 8.73478 12.3478 9.98261 13.5652C11.2304 14.7826 12.9239 15.3913 14.7065 15.3913H15.3304L8.73479 3.47826" fill="#F97E2C"/>
<path d="M0.267394 28.4348L3.56522 24.9565C4.81304 23.6522 6.50652 22.8696 8.28913 22.8696C10.0717 22.8696 11.6761 22.087 12.9239 20.8696L13.3696 20.4348L0 16.6956" fill="#F97E2C"/>
<path d="M12.3891 39.913L12.1217 35.1304C12.0326 33.3913 12.6565 31.6522 13.9044 30.3478C15.063 29.1304 15.7761 27.3913 15.687 25.7391V25.1304L3.56522 31.8261" fill="#F97E2C"/>
<path d="M29.3239 39.5652L25.6696 36.4348C24.3326 35.3044 23.5304 33.6522 23.4413 31.8261C23.3522 30.087 22.55 28.5217 21.3022 27.3044L20.8565 26.8696L17.2913 40" fill="#F97E2C"/>
<path d="M40.9109 27.4783L36.0087 27.8261C34.2261 28 32.4435 27.3913 31.1065 26.1739C29.7695 25.0435 28.0761 24.4348 26.2935 24.5217H25.6696L32.8 36.1739" fill="#F97E2C"/>
<path d="M40.1087 11.0435L36.9891 14.6957C35.8304 16 34.137 16.8696 32.3544 16.9565C30.5717 17.0435 28.9674 17.8261 27.8087 19.1304L27.4522 19.5652L41 22.6957" fill="#F97E2C"/>
<path d="M27.5413 0L27.9869 4.78261C28.1652 6.52174 27.6304 8.26088 26.3826 9.65218C25.2239 10.9565 24.6891 12.6087 24.7783 14.3478L24.8674 14.9565L36.6326 7.73914" fill="#F97E2C"/>
</svg>
