<svg xmlns="http://www.w3.org/2000/svg" viewBox="0 0 98 96" fill="currentColor">
  <path fill-rule="evenodd" clip-rule="evenodd" d="M48.854 0C21.839 0 0 22 0 49.217c0 21.756 13.993 40.172 33.405 46.69 2.427.49 3.316-1.059 3.316-2.362 0-1.141-.08-5.052-.08-9.127-13.59 2.934-16.465-5.867-16.465-5.867-2.184-5.704-5.342-7.22-5.342-7.22-4.457-3.152.339-3.09.339-3.09 4.941.346 7.537 5.117 7.537 5.117 4.369 7.496 11.406 5.338 14.242 4.082.404-3.172 1.699-5.338 3.074-6.563-10.839-1.225-22.243-5.378-22.243-23.927 0-5.282 1.892-9.604 5.003-12.984-.5-1.217-2.172-6.095 1.003-12.71 0 0 4.083-1.276 13.366 4.963a46.307 46.307 0 0 1 12.214-1.63c4.125 0 8.291.558 12.214 1.63 9.283-6.24 13.363-4.963 13.363-4.963 2.178 6.615.507 11.493 1.003 12.71 3.113 3.38 5.001 7.702 5.001 12.984 0 18.64-11.414 22.687-22.291 23.855 1.748 1.512 3.301 4.481 3.301 9.041 0 6.521-.059 11.778-.059 13.377 0 1.304.891 2.852 3.316 2.364 19.412-6.52 33.405-24.935 33.405-46.691C97.707 22 75.788 0 48.854 0z"/>
</svg>
