<svg xmlns="http://www.w3.org/2000/svg" viewBox="0 0 100 100" fill="none">
  <path
    d="M6.017 4.313l52.553-3.463a3.692 3.692 0 0 1 3.692 3.476v73.034a3.692 3.692 0 0 1-3.692 3.476L6.017 95.687A3.692 3.692 0 0 1 2.325 92.21V7.79a3.692 3.692 0 0 1 3.692-3.477z"
    fill="#FFFFFF"
  />
  <path
    fill-rule="evenodd"
    clip-rule="evenodd"
    d="M61.35.227l-55.333 3.65A3.687 3.687 0 0 0 2.325 7.79v85.42a3.686 3.686 0 0 0 3.692 3.664l55.333 3.65A3.687 3.687 0 0 0 65.042 96.76V3.877A3.686 3.686 0 0 0 61.35.227zM59.653 2.577L8.635 5.944a1.903 1.903 0 0 0-1.592 1.912v84.288a1.903 1.903 0 0 0 1.592 1.912l51.018 3.367a1.903 1.903 0 0 0 2.005-1.912V4.489a1.903 1.903 0 0 0-2.005-1.912z"
    fill="#000000"
  />
  <path
    d="M18.419 14.715V8.919l19.044-1.726 11.683 7.106-.008 5.727-11.675 7.061V16.67l-2.344 1.398v19.645l11.675 6.848V35.64l2.402-1.438V50.08l-15.389 8.975V24.587l-2.402-1.438V50.08l-8.058 4.718V14.715h2.472z"
    fill="#000000"
  />
  <path
    d="M68.375 18.364L45.281 36.073l-.009 29.912 11.008 6.488V35.064l22.113-12.682v-4.008z"
    fill="#000000"
  />
</svg>
