<svg xmlns="http://www.w3.org/2000/svg" viewBox="0 0 150 150">
<!-- SVG created with Arrow, by QuiverAI (https://quiver.ai) -->
  <style type="text/css">.cls-0 {fill:#F97E2C;}
.cls-1 {fill:#E07226;}
.cls-2 {fill:#FFFFFF;}
.cls-3 {fill:#E07226;}
.cls-4 {fill:#F97E2C;}</style>
  <path class="cls-0" d="m119 141.8h-88.5c-12.6 0-22.8-9.7-22.8-23.2v-87.1c0-12.5 10.2-23.3 22.8-23.3h88.6c12.5 0 23.2 10.8 23.2 23.3v87.1c0 14-10.3 23.2-23.3 23.2z"/>
  <path class="cls-1" d="m117.1 135.6h-84.4c-9.9 0-18.6-7.4-18.6-18v-84.1c0-9.9 8.6-19.1 18.9-19.1h83.7c10.7 0 19.3 8.2 19.3 19.2v83.5c0 11-8 18.5-18.9 18.5z"/>
  <path class="cls-2" d="m85.2 82.7c-3.1-2.1-5.2-4.1-5.7-6.5-0.9-5.7 4.5-7.5 9.1-11.2 11.1-8 11.6-23.2 10.7-32h-48.5c-0.8 8.3-0.1 23.4 10.1 31.4 4.7 3.6 9.5 5.6 9.3 10.9 0.1 4.8-5 6.7-8.2 9.4-12.3 8.3-12.5 25.3-11.2 32.3h48.5c0.9-7.9 1.1-24.9-14.1-34.3z"/>
  <path class="cls-3" d="m100.6 33.9h-51.3c-2.1 0-4-1.4-4-4.2v-1.2c0-1.9 1.7-4.2 4.3-4.2h50.8c2.2-0.1 4.2 1.7 4.2 4.2v1.2c0 2.4-1.8 4.2-4 4.2z"/>
  <path class="cls-3" d="m100.6 125.5h-51.2c-2.2 0-4.2-1.6-4.2-4.3v-1.2c0-2.2 1.6-3.7 4.2-3.7h51.1c2.5 0 4.1 1.8 4.1 3.9v1c0 2.4-1.7 4.3-4 4.3z"/>
  <path class="cls-4" d="m56.4 50.6c1.2 5.3 4 9.3 8 12.4 5.5 4.1 8 5.5 8.6 10.6 0.7 2.8 3 4.1 3.7-0.4 0.9-4 4-6.1 8.4-9.2 3.9-2.6 6.8-6 8.6-12.9-9.8 3.2-14.2 2.1-18.6 0.5-5.9-2.1-13.1-4.8-18.7-1z"/>
  <path class="cls-4" d="m75.2 93.8c-1.7 0-16.4 11.2-19.9 20.2h39.1c-2.4-6.4-17.6-19-19.2-20.2z"/>
  <circle class="cls-4" cx="74.8" cy="81.5" r="1.8"/>
  <circle class="cls-4" cx="78.5" cy="85.2" r="1.3"/>
  <circle class="cls-4" cx="75.8" cy="89" r="1.2"/>
</svg>